<mxfile host="app.diagrams.net" agent="Mozilla/5.0 (Windows NT 10.0; Win64; x64) AppleWebKit/537.36 (KHTML, like Gecko) Chrome/130.0.0.0 Safari/537.36" version="24.8.4">
  <diagram id="C5RBs43oDa-KdzZeNtuy" name="Page-1">
    <mxGraphModel dx="1434" dy="746" grid="1" gridSize="10" guides="1" tooltips="1" connect="1" arrows="1" fold="1" page="1" pageScale="1" pageWidth="827" pageHeight="1169" math="0" shadow="0">
      <root>
        <mxCell id="WIyWlLk6GJQsqaUBKTNV-0" />
        <mxCell id="WIyWlLk6GJQsqaUBKTNV-1" parent="WIyWlLk6GJQsqaUBKTNV-0" />
        <mxCell id="WIyWlLk6GJQsqaUBKTNV-2" value="" style="rounded=0;html=1;jettySize=auto;orthogonalLoop=1;fontSize=11;endArrow=block;endFill=0;endSize=8;strokeWidth=1;shadow=0;labelBackgroundColor=none;edgeStyle=orthogonalEdgeStyle;" parent="WIyWlLk6GJQsqaUBKTNV-1" source="WIyWlLk6GJQsqaUBKTNV-3" target="WIyWlLk6GJQsqaUBKTNV-6" edge="1">
          <mxGeometry relative="1" as="geometry" />
        </mxCell>
        <mxCell id="WIyWlLk6GJQsqaUBKTNV-3" value="切换到运营服务器" style="rounded=1;whiteSpace=wrap;html=1;fontSize=12;glass=0;strokeWidth=1;shadow=0;" parent="WIyWlLk6GJQsqaUBKTNV-1" vertex="1">
          <mxGeometry x="160" y="80" width="120" height="40" as="geometry" />
        </mxCell>
        <mxCell id="WIyWlLk6GJQsqaUBKTNV-4" value="否" style="rounded=0;html=1;jettySize=auto;orthogonalLoop=1;fontSize=11;endArrow=block;endFill=0;endSize=8;strokeWidth=1;shadow=0;labelBackgroundColor=none;edgeStyle=orthogonalEdgeStyle;" parent="WIyWlLk6GJQsqaUBKTNV-1" source="WIyWlLk6GJQsqaUBKTNV-6" target="WIyWlLk6GJQsqaUBKTNV-10" edge="1">
          <mxGeometry y="20" relative="1" as="geometry">
            <mxPoint as="offset" />
          </mxGeometry>
        </mxCell>
        <mxCell id="WIyWlLk6GJQsqaUBKTNV-5" value="是" style="edgeStyle=orthogonalEdgeStyle;rounded=0;html=1;jettySize=auto;orthogonalLoop=1;fontSize=11;endArrow=block;endFill=0;endSize=8;strokeWidth=1;shadow=0;labelBackgroundColor=none;" parent="WIyWlLk6GJQsqaUBKTNV-1" source="WIyWlLk6GJQsqaUBKTNV-6" target="WIyWlLk6GJQsqaUBKTNV-7" edge="1">
          <mxGeometry y="10" relative="1" as="geometry">
            <mxPoint as="offset" />
          </mxGeometry>
        </mxCell>
        <mxCell id="WIyWlLk6GJQsqaUBKTNV-6" value="是否从语音邀请链接进入?" style="rhombus;whiteSpace=wrap;html=1;shadow=0;fontFamily=Helvetica;fontSize=12;align=center;strokeWidth=1;spacing=6;spacingTop=-4;" parent="WIyWlLk6GJQsqaUBKTNV-1" vertex="1">
          <mxGeometry x="120" y="170" width="200" height="100" as="geometry" />
        </mxCell>
        <mxCell id="WIyWlLk6GJQsqaUBKTNV-7" value="走语音邀请流程" style="rounded=1;whiteSpace=wrap;html=1;fontSize=12;glass=0;strokeWidth=1;shadow=0;" parent="WIyWlLk6GJQsqaUBKTNV-1" vertex="1">
          <mxGeometry x="460" y="200" width="120" height="40" as="geometry" />
        </mxCell>
        <mxCell id="WIyWlLk6GJQsqaUBKTNV-9" value="否" style="edgeStyle=orthogonalEdgeStyle;rounded=0;html=1;jettySize=auto;orthogonalLoop=1;fontSize=11;endArrow=block;endFill=0;endSize=8;strokeWidth=1;shadow=0;labelBackgroundColor=none;" parent="WIyWlLk6GJQsqaUBKTNV-1" source="WIyWlLk6GJQsqaUBKTNV-10" target="WIyWlLk6GJQsqaUBKTNV-12" edge="1">
          <mxGeometry y="10" relative="1" as="geometry">
            <mxPoint as="offset" />
          </mxGeometry>
        </mxCell>
        <mxCell id="LTLBxDjWq7Fddhk7MbHE-4" value="" style="edgeStyle=orthogonalEdgeStyle;rounded=0;orthogonalLoop=1;jettySize=auto;html=1;" edge="1" parent="WIyWlLk6GJQsqaUBKTNV-1" source="WIyWlLk6GJQsqaUBKTNV-10" target="LTLBxDjWq7Fddhk7MbHE-3">
          <mxGeometry relative="1" as="geometry" />
        </mxCell>
        <mxCell id="LTLBxDjWq7Fddhk7MbHE-5" value="是" style="edgeLabel;html=1;align=center;verticalAlign=middle;resizable=0;points=[];" vertex="1" connectable="0" parent="LTLBxDjWq7Fddhk7MbHE-4">
          <mxGeometry x="-0.1" y="4" relative="1" as="geometry">
            <mxPoint as="offset" />
          </mxGeometry>
        </mxCell>
        <mxCell id="WIyWlLk6GJQsqaUBKTNV-10" value="是否配置了默认语音频道" style="rhombus;whiteSpace=wrap;html=1;shadow=0;fontFamily=Helvetica;fontSize=12;align=center;strokeWidth=1;spacing=6;spacingTop=-4;" parent="WIyWlLk6GJQsqaUBKTNV-1" vertex="1">
          <mxGeometry x="120" y="350" width="200" height="90" as="geometry" />
        </mxCell>
        <mxCell id="WIyWlLk6GJQsqaUBKTNV-12" value="不处理" style="rounded=1;whiteSpace=wrap;html=1;fontSize=12;glass=0;strokeWidth=1;shadow=0;" parent="WIyWlLk6GJQsqaUBKTNV-1" vertex="1">
          <mxGeometry x="470" y="375" width="120" height="40" as="geometry" />
        </mxCell>
        <mxCell id="LTLBxDjWq7Fddhk7MbHE-7" value="" style="edgeStyle=orthogonalEdgeStyle;rounded=0;orthogonalLoop=1;jettySize=auto;html=1;" edge="1" parent="WIyWlLk6GJQsqaUBKTNV-1" source="LTLBxDjWq7Fddhk7MbHE-3" target="LTLBxDjWq7Fddhk7MbHE-6">
          <mxGeometry relative="1" as="geometry" />
        </mxCell>
        <mxCell id="LTLBxDjWq7Fddhk7MbHE-8" value="是" style="edgeLabel;html=1;align=center;verticalAlign=middle;resizable=0;points=[];" vertex="1" connectable="0" parent="LTLBxDjWq7Fddhk7MbHE-7">
          <mxGeometry x="0.1" y="2" relative="1" as="geometry">
            <mxPoint as="offset" />
          </mxGeometry>
        </mxCell>
        <mxCell id="LTLBxDjWq7Fddhk7MbHE-19" style="edgeStyle=orthogonalEdgeStyle;rounded=0;orthogonalLoop=1;jettySize=auto;html=1;exitX=0.5;exitY=1;exitDx=0;exitDy=0;entryX=0;entryY=0.5;entryDx=0;entryDy=0;" edge="1" parent="WIyWlLk6GJQsqaUBKTNV-1" source="LTLBxDjWq7Fddhk7MbHE-3" target="LTLBxDjWq7Fddhk7MbHE-12">
          <mxGeometry relative="1" as="geometry" />
        </mxCell>
        <mxCell id="LTLBxDjWq7Fddhk7MbHE-20" value="否" style="edgeLabel;html=1;align=center;verticalAlign=middle;resizable=0;points=[];" vertex="1" connectable="0" parent="LTLBxDjWq7Fddhk7MbHE-19">
          <mxGeometry x="0.2058" relative="1" as="geometry">
            <mxPoint as="offset" />
          </mxGeometry>
        </mxCell>
        <mxCell id="LTLBxDjWq7Fddhk7MbHE-3" value="是否在语音频道" style="rhombus;whiteSpace=wrap;html=1;shadow=0;fontFamily=Helvetica;fontSize=12;align=center;strokeWidth=1;spacing=6;spacingTop=-4;" vertex="1" parent="WIyWlLk6GJQsqaUBKTNV-1">
          <mxGeometry x="120" y="520" width="200" height="90" as="geometry" />
        </mxCell>
        <mxCell id="LTLBxDjWq7Fddhk7MbHE-10" style="edgeStyle=orthogonalEdgeStyle;rounded=0;orthogonalLoop=1;jettySize=auto;html=1;exitX=1;exitY=0.5;exitDx=0;exitDy=0;entryX=0;entryY=0.5;entryDx=0;entryDy=0;" edge="1" parent="WIyWlLk6GJQsqaUBKTNV-1" source="LTLBxDjWq7Fddhk7MbHE-6" target="LTLBxDjWq7Fddhk7MbHE-9">
          <mxGeometry relative="1" as="geometry" />
        </mxCell>
        <mxCell id="LTLBxDjWq7Fddhk7MbHE-11" value="是" style="edgeLabel;html=1;align=center;verticalAlign=middle;resizable=0;points=[];" vertex="1" connectable="0" parent="LTLBxDjWq7Fddhk7MbHE-10">
          <mxGeometry x="0.08" y="4" relative="1" as="geometry">
            <mxPoint as="offset" />
          </mxGeometry>
        </mxCell>
        <mxCell id="LTLBxDjWq7Fddhk7MbHE-13" value="" style="edgeStyle=orthogonalEdgeStyle;rounded=0;orthogonalLoop=1;jettySize=auto;html=1;" edge="1" parent="WIyWlLk6GJQsqaUBKTNV-1" source="LTLBxDjWq7Fddhk7MbHE-6" target="LTLBxDjWq7Fddhk7MbHE-12">
          <mxGeometry relative="1" as="geometry" />
        </mxCell>
        <mxCell id="LTLBxDjWq7Fddhk7MbHE-14" value="否" style="edgeLabel;html=1;align=center;verticalAlign=middle;resizable=0;points=[];" vertex="1" connectable="0" parent="LTLBxDjWq7Fddhk7MbHE-13">
          <mxGeometry x="-0.1158" y="-1" relative="1" as="geometry">
            <mxPoint as="offset" />
          </mxGeometry>
        </mxCell>
        <mxCell id="LTLBxDjWq7Fddhk7MbHE-6" value="是否在默认语音频道" style="rhombus;whiteSpace=wrap;html=1;shadow=0;fontFamily=Helvetica;fontSize=12;align=center;strokeWidth=1;spacing=6;spacingTop=-4;" vertex="1" parent="WIyWlLk6GJQsqaUBKTNV-1">
          <mxGeometry x="400" y="520" width="200" height="90" as="geometry" />
        </mxCell>
        <mxCell id="LTLBxDjWq7Fddhk7MbHE-9" value="不处理" style="rounded=1;whiteSpace=wrap;html=1;" vertex="1" parent="WIyWlLk6GJQsqaUBKTNV-1">
          <mxGeometry x="650" y="535" width="120" height="60" as="geometry" />
        </mxCell>
        <mxCell id="LTLBxDjWq7Fddhk7MbHE-16" value="" style="edgeStyle=orthogonalEdgeStyle;rounded=0;orthogonalLoop=1;jettySize=auto;html=1;" edge="1" parent="WIyWlLk6GJQsqaUBKTNV-1" source="LTLBxDjWq7Fddhk7MbHE-12" target="LTLBxDjWq7Fddhk7MbHE-15">
          <mxGeometry relative="1" as="geometry" />
        </mxCell>
        <mxCell id="LTLBxDjWq7Fddhk7MbHE-12" value="根据配置&lt;br&gt;弹出/不弹询问弹框" style="whiteSpace=wrap;html=1;shadow=0;strokeWidth=1;spacing=6;spacingTop=-4;" vertex="1" parent="WIyWlLk6GJQsqaUBKTNV-1">
          <mxGeometry x="440" y="705" width="120" height="60" as="geometry" />
        </mxCell>
        <mxCell id="LTLBxDjWq7Fddhk7MbHE-25" style="edgeStyle=orthogonalEdgeStyle;rounded=0;orthogonalLoop=1;jettySize=auto;html=1;exitX=1;exitY=0.5;exitDx=0;exitDy=0;entryX=0;entryY=0.5;entryDx=0;entryDy=0;" edge="1" parent="WIyWlLk6GJQsqaUBKTNV-1" source="LTLBxDjWq7Fddhk7MbHE-15" target="LTLBxDjWq7Fddhk7MbHE-24">
          <mxGeometry relative="1" as="geometry" />
        </mxCell>
        <mxCell id="LTLBxDjWq7Fddhk7MbHE-26" value="否" style="edgeLabel;html=1;align=center;verticalAlign=middle;resizable=0;points=[];" vertex="1" connectable="0" parent="LTLBxDjWq7Fddhk7MbHE-25">
          <mxGeometry x="-0.2727" y="4" relative="1" as="geometry">
            <mxPoint as="offset" />
          </mxGeometry>
        </mxCell>
        <mxCell id="LTLBxDjWq7Fddhk7MbHE-28" value="" style="edgeStyle=orthogonalEdgeStyle;rounded=0;orthogonalLoop=1;jettySize=auto;html=1;" edge="1" parent="WIyWlLk6GJQsqaUBKTNV-1" source="LTLBxDjWq7Fddhk7MbHE-15" target="LTLBxDjWq7Fddhk7MbHE-27">
          <mxGeometry relative="1" as="geometry" />
        </mxCell>
        <mxCell id="LTLBxDjWq7Fddhk7MbHE-29" value="是" style="edgeLabel;html=1;align=center;verticalAlign=middle;resizable=0;points=[];" vertex="1" connectable="0" parent="LTLBxDjWq7Fddhk7MbHE-28">
          <mxGeometry x="-0.1385" y="-3" relative="1" as="geometry">
            <mxPoint as="offset" />
          </mxGeometry>
        </mxCell>
        <mxCell id="LTLBxDjWq7Fddhk7MbHE-15" value="进入？" style="rhombus;whiteSpace=wrap;html=1;shadow=0;strokeWidth=1;spacing=6;spacingTop=-4;" vertex="1" parent="WIyWlLk6GJQsqaUBKTNV-1">
          <mxGeometry x="460" y="835" width="80" height="80" as="geometry" />
        </mxCell>
        <mxCell id="LTLBxDjWq7Fddhk7MbHE-21" value="加入默认语音频道" style="rounded=1;whiteSpace=wrap;html=1;" vertex="1" parent="WIyWlLk6GJQsqaUBKTNV-1">
          <mxGeometry x="440" y="1130" width="120" height="60" as="geometry" />
        </mxCell>
        <mxCell id="LTLBxDjWq7Fddhk7MbHE-24" value="不处理" style="rounded=1;whiteSpace=wrap;html=1;" vertex="1" parent="WIyWlLk6GJQsqaUBKTNV-1">
          <mxGeometry x="650" y="845" width="120" height="60" as="geometry" />
        </mxCell>
        <mxCell id="LTLBxDjWq7Fddhk7MbHE-30" style="edgeStyle=orthogonalEdgeStyle;rounded=0;orthogonalLoop=1;jettySize=auto;html=1;exitX=0.5;exitY=1;exitDx=0;exitDy=0;entryX=0.5;entryY=0;entryDx=0;entryDy=0;" edge="1" parent="WIyWlLk6GJQsqaUBKTNV-1" source="LTLBxDjWq7Fddhk7MbHE-27" target="LTLBxDjWq7Fddhk7MbHE-21">
          <mxGeometry relative="1" as="geometry" />
        </mxCell>
        <mxCell id="LTLBxDjWq7Fddhk7MbHE-31" value="否" style="edgeLabel;html=1;align=center;verticalAlign=middle;resizable=0;points=[];" vertex="1" connectable="0" parent="LTLBxDjWq7Fddhk7MbHE-30">
          <mxGeometry x="-0.1143" y="-2" relative="1" as="geometry">
            <mxPoint as="offset" />
          </mxGeometry>
        </mxCell>
        <mxCell id="LTLBxDjWq7Fddhk7MbHE-33" value="" style="edgeStyle=orthogonalEdgeStyle;rounded=0;orthogonalLoop=1;jettySize=auto;html=1;" edge="1" parent="WIyWlLk6GJQsqaUBKTNV-1" source="LTLBxDjWq7Fddhk7MbHE-27" target="LTLBxDjWq7Fddhk7MbHE-32">
          <mxGeometry relative="1" as="geometry" />
        </mxCell>
        <mxCell id="LTLBxDjWq7Fddhk7MbHE-34" value="是" style="edgeLabel;html=1;align=center;verticalAlign=middle;resizable=0;points=[];" vertex="1" connectable="0" parent="LTLBxDjWq7Fddhk7MbHE-33">
          <mxGeometry x="-0.175" y="-4" relative="1" as="geometry">
            <mxPoint as="offset" />
          </mxGeometry>
        </mxCell>
        <mxCell id="LTLBxDjWq7Fddhk7MbHE-27" value="是否在语音频道？" style="rhombus;whiteSpace=wrap;html=1;shadow=0;strokeWidth=1;spacing=6;spacingTop=-4;" vertex="1" parent="WIyWlLk6GJQsqaUBKTNV-1">
          <mxGeometry x="440" y="980" width="120" height="80" as="geometry" />
        </mxCell>
        <mxCell id="LTLBxDjWq7Fddhk7MbHE-36" value="" style="edgeStyle=orthogonalEdgeStyle;rounded=0;orthogonalLoop=1;jettySize=auto;html=1;" edge="1" parent="WIyWlLk6GJQsqaUBKTNV-1" source="LTLBxDjWq7Fddhk7MbHE-32" target="LTLBxDjWq7Fddhk7MbHE-35">
          <mxGeometry relative="1" as="geometry" />
        </mxCell>
        <mxCell id="LTLBxDjWq7Fddhk7MbHE-32" value="弹出切换频道弹框" style="whiteSpace=wrap;html=1;shadow=0;strokeWidth=1;spacing=6;spacingTop=-4;" vertex="1" parent="WIyWlLk6GJQsqaUBKTNV-1">
          <mxGeometry x="640" y="990" width="120" height="60" as="geometry" />
        </mxCell>
        <mxCell id="LTLBxDjWq7Fddhk7MbHE-37" style="edgeStyle=orthogonalEdgeStyle;rounded=0;orthogonalLoop=1;jettySize=auto;html=1;exitX=0.5;exitY=1;exitDx=0;exitDy=0;entryX=1;entryY=0.5;entryDx=0;entryDy=0;" edge="1" parent="WIyWlLk6GJQsqaUBKTNV-1" source="LTLBxDjWq7Fddhk7MbHE-35" target="LTLBxDjWq7Fddhk7MbHE-21">
          <mxGeometry relative="1" as="geometry" />
        </mxCell>
        <mxCell id="LTLBxDjWq7Fddhk7MbHE-38" value="是" style="edgeLabel;html=1;align=center;verticalAlign=middle;resizable=0;points=[];" vertex="1" connectable="0" parent="LTLBxDjWq7Fddhk7MbHE-37">
          <mxGeometry x="0.3179" y="-3" relative="1" as="geometry">
            <mxPoint as="offset" />
          </mxGeometry>
        </mxCell>
        <mxCell id="LTLBxDjWq7Fddhk7MbHE-40" style="edgeStyle=orthogonalEdgeStyle;rounded=0;orthogonalLoop=1;jettySize=auto;html=1;exitX=1;exitY=0.5;exitDx=0;exitDy=0;entryX=0;entryY=0.5;entryDx=0;entryDy=0;" edge="1" parent="WIyWlLk6GJQsqaUBKTNV-1" source="LTLBxDjWq7Fddhk7MbHE-35" target="LTLBxDjWq7Fddhk7MbHE-39">
          <mxGeometry relative="1" as="geometry" />
        </mxCell>
        <mxCell id="LTLBxDjWq7Fddhk7MbHE-41" value="否" style="edgeLabel;html=1;align=center;verticalAlign=middle;resizable=0;points=[];" vertex="1" connectable="0" parent="LTLBxDjWq7Fddhk7MbHE-40">
          <mxGeometry x="-0.3143" y="1" relative="1" as="geometry">
            <mxPoint as="offset" />
          </mxGeometry>
        </mxCell>
        <mxCell id="LTLBxDjWq7Fddhk7MbHE-35" value="确认切换？" style="rhombus;whiteSpace=wrap;html=1;shadow=0;strokeWidth=1;spacing=6;spacingTop=-4;" vertex="1" parent="WIyWlLk6GJQsqaUBKTNV-1">
          <mxGeometry x="810" y="980" width="80" height="80" as="geometry" />
        </mxCell>
        <mxCell id="LTLBxDjWq7Fddhk7MbHE-39" value="不处理" style="rounded=1;whiteSpace=wrap;html=1;" vertex="1" parent="WIyWlLk6GJQsqaUBKTNV-1">
          <mxGeometry x="960" y="990" width="120" height="60" as="geometry" />
        </mxCell>
      </root>
    </mxGraphModel>
  </diagram>
</mxfile>
